<?xml version="1.0" encoding="utf-8"?>
<!-- Generator: Adobe Illustrator 22.1.0, SVG Export Plug-In . SVG Version: 6.00 Build 0)  -->
<svg version="1.1" id="Layer_1" xmlns="http://www.w3.org/2000/svg" xmlns:xlink="http://www.w3.org/1999/xlink" x="0px" y="0px"
	 viewBox="0 0 200 200" style="enable-background:new 0 0 200 200;" xml:space="preserve">
<style type="text/css">
	.st0{fill:#FFFFFF;}
</style>
<g>
	<path class="st0" d="M100,9.3C50,9.3,9.3,50,9.3,100S50,190.7,100,190.7c50,0,90.7-40.7,90.7-90.7S150,9.3,100,9.3z"/>
	<path d="M100,0C44.9,0,0,44.9,0,100s44.9,100,100,100c55.1,0,100-44.9,100-100S155.1,0,100,0z M100,190.7C50,190.7,9.3,150,9.3,100
		S50,9.3,100,9.3c50,0,90.7,40.7,90.7,90.7S150,190.7,100,190.7z"/>
	<path d="M89.4,97.2c2.6-1.3,4.5-2.8,5.8-4.4c2.4-2.8,3.5-6.6,3.5-11.2c0-4.5-1.2-8.4-3.5-11.7c-3.9-5.3-10.5-8-19.8-8.1H38.6v76.4
		H73c3.9,0,7.5-0.3,10.8-1c3.3-0.7,6.2-2,8.6-3.8c2.2-1.6,4-3.6,5.4-6c2.3-3.6,3.4-7.7,3.4-12.2c0-4.4-1-8.1-3-11.2
		C96.3,100.9,93.3,98.6,89.4,97.2z M56.2,75.1h14.2c3.6,0,6.7,0.4,9,1.2c2.7,1.1,4.1,3.5,4.1,7c0,3.2-1,5.5-3.1,6.7
		c-2.1,1.3-4.7,1.9-8.1,1.9H56.2V75.1z M80.1,123.6c-1.9,0.9-4.4,1.3-7.7,1.3H56.2v-20.4h16.4c3.3,0,5.8,0.5,7.6,1.3
		c3.2,1.5,4.9,4.2,4.9,8.2C85.1,118.8,83.5,121.9,80.1,123.6z"/>
	<rect x="118.7" y="65" width="30.8" height="7.6"/>
	<path d="M160.9,101.6c-0.7-4.3-2.1-8.1-4.4-11.3c-2.5-3.7-5.6-6.4-9.4-8.1c-3.8-1.7-8.1-2.6-12.9-2.6c-8,0-14.5,2.5-19.6,7.6
		c-5,5.1-7.5,12.3-7.5,21.8c0,10.1,2.8,17.4,8.3,21.9c5.6,4.5,12,6.7,19.3,6.7c8.8,0,15.7-2.7,20.6-8c3.2-3.4,4.9-6.6,5.3-9.9H146
		c-0.9,1.6-1.8,2.9-2.9,3.8c-2,1.7-4.7,2.5-7.9,2.5c-3.1,0-5.7-0.7-7.9-2.1c-3.6-2.2-5.5-6-5.7-11.5h39.8
		C161.4,107.7,161.3,104.1,160.9,101.6z M121.9,103c0.5-3.6,1.8-6.4,3.8-8.5c2-2.1,4.9-3.1,8.5-3.1c3.4,0,6.2,1,8.5,3
		c2.3,2,3.6,4.8,3.8,8.7H121.9z"/>
</g>
</svg>
