<?xml version="1.0" encoding="utf-8"?>
<!-- Generator: Adobe Illustrator 22.1.0, SVG Export Plug-In . SVG Version: 6.00 Build 0)  -->
<svg version="1.1" id="Layer_1" xmlns="http://www.w3.org/2000/svg" xmlns:xlink="http://www.w3.org/1999/xlink" x="0px" y="0px"
	 viewBox="0 0 200 200" style="enable-background:new 0 0 200 200;" xml:space="preserve">
<style type="text/css">
	.st0{fill:#FFFFFF;}
</style>
<g>
	<circle class="st0" cx="100" cy="100" r="90.7"/>
	<path d="M100,0C44.9,0,0,44.9,0,100s44.9,100,100,100s100-44.9,100-100S155.1,0,100,0z M100,190.7C50,190.7,9.3,150,9.3,100
		S50,9.3,100,9.3S190.7,50,190.7,100S150,190.7,100,190.7z"/>
	<path d="M88.2,70.6v14.5h-17v19.7h17v50.5h20.3v-50.5h17l2.5-19.7h-19.5V72.6c0-5.7,1.6-9.6,9.8-9.6l10.4,0V45.4
		c-1.8-0.2-8-0.8-15.2-0.8C98.5,44.6,88.2,53.8,88.2,70.6z"/>
</g>
</svg>
