<?xml version="1.0" encoding="utf-8"?>
<!-- Generator: Adobe Illustrator 22.1.0, SVG Export Plug-In . SVG Version: 6.00 Build 0)  -->
<svg version="1.1" id="Layer_1" xmlns="http://www.w3.org/2000/svg" xmlns:xlink="http://www.w3.org/1999/xlink" x="0px" y="0px"
	 viewBox="0 0 200 200" style="enable-background:new 0 0 200 200;" xml:space="preserve">
<style type="text/css">
	.st0{fill:#FFFFFF;}
</style>
<g>
	<circle class="st0" cx="100" cy="100" r="90.7"/>
	<path d="M100,0C44.9,0,0,44.9,0,100s44.9,100,100,100s100-44.9,100-100S155.1,0,100,0z M100,190.7C50,190.7,9.3,150,9.3,100
		S50,9.3,100,9.3S190.7,50,190.7,100S150,190.7,100,190.7z"/>
	<path d="M122.4,44.6H77.6c-18.2,0-33,14.8-33,33v44.8c0,18.2,14.8,33,33,33h44.8c18.2,0,33-14.8,33-33V77.6
		C155.4,59.4,140.6,44.6,122.4,44.6z M144.3,122.4c0,12.1-9.8,21.9-21.9,21.9H77.6c-12.1,0-21.9-9.8-21.9-21.9V77.6
		c0-12.1,9.8-21.9,21.9-21.9h44.8c12.1,0,21.9,9.8,21.9,21.9V122.4z"/>
	<path d="M100,71.3c-15.8,0-28.7,12.9-28.7,28.7s12.9,28.7,28.7,28.7s28.7-12.9,28.7-28.7S115.8,71.3,100,71.3z M100,117.5
		c-9.7,0-17.5-7.8-17.5-17.5c0-9.7,7.8-17.5,17.5-17.5s17.5,7.8,17.5,17.5C117.5,109.7,109.7,117.5,100,117.5z"/>
	<path d="M128.7,64.7c-3.8,0-6.9,3.1-6.9,6.9s3.1,6.9,6.9,6.9c3.8,0,6.9-3.1,6.9-6.9S132.5,64.7,128.7,64.7z"/>
</g>
</svg>
