<?xml version="1.0" encoding="utf-8"?>
<!-- Generator: Adobe Illustrator 22.1.0, SVG Export Plug-In . SVG Version: 6.00 Build 0)  -->
<svg version="1.1" id="Layer_1" xmlns="http://www.w3.org/2000/svg" xmlns:xlink="http://www.w3.org/1999/xlink" x="0px" y="0px"
	 viewBox="0 0 200 200" style="enable-background:new 0 0 200 200;" xml:space="preserve">
<style type="text/css">
	.st0{fill:#FFFFFF;}
</style>
<g>
	<circle class="st0" cx="100" cy="100" r="90.7"/>
	<path d="M100,0C44.9,0,0,44.9,0,100s44.9,100,100,100s100-44.9,100-100S155.1,0,100,0z M100,190.7C50,190.7,9.3,150,9.3,100
		S50,9.3,100,9.3S190.7,50,190.7,100S150,190.7,100,190.7z"/>
	<path d="M149.3,83.1c-4.2-12.3-13.1-22.8-24.5-28.9c-10.2-5.6-22.3-7.5-33.8-5.5c-10.2-5.9-23.7-5.3-33.2,1.6
		c-6.3,4.4-10.9,11.3-12.5,18.8c-1.6,7.4-0.4,15.3,3.4,21.9c-1.6,9.1-0.7,18.7,2.5,27.3c4.5,12.1,13.7,22.4,25.3,28.2
		c9.9,5.1,21.5,6.7,32.5,4.8c9.9,5.7,22.9,5.4,32.4-1c6.8-4.5,11.8-11.8,13.4-19.8c1.5-7.3,0.2-15-3.5-21.5
		C152.8,100.4,152.2,91.4,149.3,83.1z M139.5,141.8c-5.6,5-13.7,6.8-21,4.9c-2.9-0.7-5.5-2.2-8-3.7c-8.7,1.9-18,1.5-26.3-1.8
		c-12.3-4.7-22.2-15.2-26.2-27.7c-2.5-7.7-2.7-16.1-1-24c-2.7-4.1-4.5-8.9-4.4-13.9c-0.1-7.6,4-15.1,10.4-19.2
		c5.8-3.9,13.4-4.9,20-2.6c2.3,0.7,4.5,2,6.6,3.3c8.3-1.8,17.1-1.5,25.1,1.3c12.8,4.4,23.2,15,27.3,27.8c2.7,7.8,2.8,16.3,1.1,24.4
		c2.1,3.4,3.8,7,4.3,11C148.3,129,145.2,136.9,139.5,141.8z"/>
	<path d="M109.7,95.1c-4.6-1.1-9.1-2-13.7-3.1c-2.4-0.7-5-1.4-6.7-3.3c-1.8-2.2-1.1-5.5,0.7-7.5c2-2,4.9-2.6,7.6-2.7
		c3.7-0.1,7.7,0.6,10.6,3c2.3,1.7,3.7,4.6,6.5,5.8c2.4,0.8,5.3,0.2,7-1.6c1.6-1.7,1.5-4.4,0.7-6.5c-1.4-3.2-4.2-5.4-7.1-7
		c-6.7-3.6-14.6-4.8-22.1-3.6c-5.2,0.8-10.6,2.7-14.3,6.7c-4,4.2-4.8,10.5-3.6,15.9c0.7,3.5,3,6.5,5.9,8.5c3.8,2.6,8.3,3.6,12.7,4.7
		c4,1.1,8,2,12,3.1c2.2,0.6,4.4,1.8,5.3,4c1.1,2.3,0.2,5.1-1.5,6.9c-2.4,2.7-6.2,3.8-9.8,3.7c-3.6,0.1-7.4-0.9-10.1-3.4
		c-2.3-2-3.5-4.9-5.9-6.7c-3.1-2.4-8.5-0.9-9.5,3c-0.9,4,1.5,7.9,4.4,10.5c5.7,5.1,13.6,6.6,21.1,6.7c7,0,14.4-1.4,19.8-6.1
		c6.7-5.7,7.9-16.8,2.5-23.8C119.2,98.2,114.4,96.2,109.7,95.1z"/>
</g>
</svg>
