<?xml version="1.0" encoding="utf-8"?>
<!-- Generator: Adobe Illustrator 22.1.0, SVG Export Plug-In . SVG Version: 6.00 Build 0)  -->
<svg version="1.1" id="Layer_1" xmlns="http://www.w3.org/2000/svg" xmlns:xlink="http://www.w3.org/1999/xlink" x="0px" y="0px"
	 viewBox="0 0 200 200" style="enable-background:new 0 0 200 200;" xml:space="preserve">
<style type="text/css">
	.st0{fill:#FFFFFF;}
</style>
<g>
	<circle class="st0" cx="100" cy="100" r="90.7"/>
	<path d="M100,0C44.9,0,0,44.9,0,100s44.9,100,100,100s100-44.9,100-100S155.1,0,100,0z M100,190.7C50,190.7,9.3,150,9.3,100
		S50,9.3,100,9.3S190.7,50,190.7,100S150,190.7,100,190.7z"/>
	<path d="M138.3,52.9L37.5,91.8c-6.9,2.8-6.8,6.6-1.3,8.3l25.9,8.1L122,70.4c2.8-1.7,5.4-0.8,3.3,1.1l-47,42.4l0,0l-11.3,10.2
		l4.8,15.6c1,3.6,2.2,3.4,3.3,2.2l14.8-17.1l29.2,21.5c4.8,2.7,8.3,1.3,9.5-4.5l17.2-80.9C147.3,54,142.9,50.8,138.3,52.9z"/>
</g>
</svg>
